<svg xmlns="http://www.w3.org/2000/svg" width="30.658" height="30.751" viewBox="0 0 30.658 30.751">
  <g id="dot-arrow" transform="translate(31.106 30.751) rotate(180)">
    <circle id="Ellipse_21" data-name="Ellipse 21" cx="1.532" cy="1.532" r="1.532" transform="translate(0.448 0)" fill="#08954c"/>
    <circle id="Ellipse_22" data-name="Ellipse 22" cx="1.532" cy="1.532" r="1.532" transform="translate(4.999 4.643)" fill="#08954c"/>
    <circle id="Ellipse_23" data-name="Ellipse 23" cx="1.532" cy="1.532" r="1.532" transform="translate(4.999 0)" fill="#08954c"/>
    <circle id="Ellipse_24" data-name="Ellipse 24" cx="1.532" cy="1.532" r="1.532" transform="translate(9.642 4.643)" fill="#08954c"/>
    <circle id="Ellipse_25" data-name="Ellipse 25" cx="1.532" cy="1.532" r="1.532" transform="translate(9.642 9.194)" fill="#08954c"/>
    <circle id="Ellipse_26" data-name="Ellipse 26" cx="1.532" cy="1.532" r="1.532" transform="translate(9.642 0)" fill="#08954c"/>
    <circle id="Ellipse_27" data-name="Ellipse 27" cx="1.532" cy="1.532" r="1.532" transform="translate(14.193 4.643)" fill="#08954c"/>
    <circle id="Ellipse_28" data-name="Ellipse 28" cx="1.532" cy="1.532" r="1.532" transform="translate(14.193 9.194)" fill="#08954c"/>
    <circle id="Ellipse_29" data-name="Ellipse 29" cx="1.532" cy="1.532" r="1.532" transform="translate(14.193 0)" fill="#08954c"/>
    <circle id="Ellipse_30" data-name="Ellipse 30" cx="1.532" cy="1.532" r="1.532" transform="translate(18.743 4.643)" fill="#08954c"/>
    <circle id="Ellipse_31" data-name="Ellipse 31" cx="1.532" cy="1.532" r="1.532" transform="translate(18.743 9.194)" fill="#08954c"/>
    <circle id="Ellipse_32" data-name="Ellipse 32" cx="1.532" cy="1.532" r="1.532" transform="translate(14.193 13.744)" fill="#08954c"/>
    <circle id="Ellipse_33" data-name="Ellipse 33" cx="1.532" cy="1.532" r="1.532" transform="translate(18.743 13.744)" fill="#08954c"/>
    <circle id="Ellipse_34" data-name="Ellipse 34" cx="1.532" cy="1.532" r="1.532" transform="translate(9.642 18.387)" fill="#08954c"/>
    <circle id="Ellipse_35" data-name="Ellipse 35" cx="1.532" cy="1.532" r="1.532" transform="translate(14.193 18.387)" fill="#08954c"/>
    <circle id="Ellipse_36" data-name="Ellipse 36" cx="1.532" cy="1.532" r="1.532" transform="translate(18.743 18.387)" fill="#08954c"/>
    <circle id="Ellipse_37" data-name="Ellipse 37" cx="1.532" cy="1.532" r="1.532" transform="translate(4.999 22.944)" fill="#08954c"/>
    <circle id="Ellipse_38" data-name="Ellipse 38" cx="1.532" cy="1.532" r="1.532" transform="translate(9.642 22.944)" fill="#08954c"/>
    <circle id="Ellipse_39" data-name="Ellipse 39" cx="1.532" cy="1.532" r="1.532" transform="translate(14.193 22.944)" fill="#08954c"/>
    <circle id="Ellipse_40" data-name="Ellipse 40" cx="1.532" cy="1.532" r="1.532" transform="translate(18.743 22.944)" fill="#08954c"/>
    <circle id="Ellipse_41" data-name="Ellipse 41" cx="1.532" cy="1.532" r="1.532" transform="translate(23.485 9.194)" fill="#08954c"/>
    <circle id="Ellipse_42" data-name="Ellipse 42" cx="1.532" cy="1.532" r="1.532" transform="translate(23.485 13.744)" fill="#08954c"/>
    <circle id="Ellipse_43" data-name="Ellipse 43" cx="1.532" cy="1.532" r="1.532" transform="translate(23.485 18.387)" fill="#08954c"/>
    <circle id="Ellipse_44" data-name="Ellipse 44" cx="1.532" cy="1.532" r="1.532" transform="translate(0.448 27.686)" fill="#08954c"/>
    <circle id="Ellipse_45" data-name="Ellipse 45" cx="1.532" cy="1.532" r="1.532" transform="translate(4.999 27.686)" fill="#08954c"/>
    <circle id="Ellipse_46" data-name="Ellipse 46" cx="1.532" cy="1.532" r="1.532" transform="translate(9.642 27.686)" fill="#08954c"/>
    <circle id="Ellipse_47" data-name="Ellipse 47" cx="1.532" cy="1.532" r="1.532" transform="translate(14.193 27.686)" fill="#08954c"/>
    <circle id="Ellipse_48" data-name="Ellipse 48" cx="1.532" cy="1.532" r="1.532" transform="translate(28.041 13.744)" fill="#08954c"/>
  </g>
</svg>
