<svg xmlns="http://www.w3.org/2000/svg" width="30" height="29.695" viewBox="0 0 30 29.695">
  <g id="settings-gears" transform="translate(-0.001 -4.737)">
    <path id="Path_33" data-name="Path 33" d="M1.971,15.576a7.3,7.3,0,0,0,.653,1.551l-.788.994A.816.816,0,0,0,1.9,19.2l1.358,1.358a.813.813,0,0,0,1.081.061l.988-.782a7.178,7.178,0,0,0,1.612.682l.148,1.271a.814.814,0,0,0,.808.721H9.813a.814.814,0,0,0,.808-.721l.142-1.226a7.261,7.261,0,0,0,1.728-.7l.956.756a.816.816,0,0,0,1.081-.061l1.358-1.358a.813.813,0,0,0,.061-1.081l-.743-.943a7.092,7.092,0,0,0,.711-1.7l1.146-.132a.814.814,0,0,0,.721-.808V12.622a.814.814,0,0,0-.721-.808l-1.13-.132A7.138,7.138,0,0,0,15.249,10l.7-.879a.816.816,0,0,0-.061-1.081L14.528,6.687a.813.813,0,0,0-1.081-.061l-.853.676a7.162,7.162,0,0,0-1.767-.74l-.129-1.1a.814.814,0,0,0-.808-.721H7.969a.814.814,0,0,0-.808.721l-.129,1.1a7.133,7.133,0,0,0-1.812.766l-.885-.7a.816.816,0,0,0-1.081.061L1.9,8.045a.813.813,0,0,0-.061,1.081l.74.937a7,7,0,0,0-.669,1.7l-1.184.135A.814.814,0,0,0,0,12.7v1.921a.814.814,0,0,0,.721.808Zm6.961-5.2a3.176,3.176,0,1,1-3.176,3.176A3.181,3.181,0,0,1,8.932,10.379Z"/>
    <path id="Path_34" data-name="Path 34" d="M490.465,289.963l-1.014-.856a.8.8,0,0,0-1.068.029l-.56.525a5.787,5.787,0,0,0-1.493-.483l-.158-.772a.809.809,0,0,0-.856-.644l-1.323.113a.806.806,0,0,0-.737.776l-.026.785a5.8,5.8,0,0,0-1.426.75l-.669-.444a.8.8,0,0,0-1.059.151l-.856,1.02a.8.8,0,0,0,.029,1.068l.586.624a6,6,0,0,0-.431,1.429l-.837.171a.809.809,0,0,0-.644.856l.113,1.323a.806.806,0,0,0,.776.737l.9.029a5.91,5.91,0,0,0,.64,1.223l-.505.763a.8.8,0,0,0,.151,1.059l1.014.856a.8.8,0,0,0,1.068-.029l.663-.621a5.811,5.811,0,0,0,1.361.444l.183.908a.809.809,0,0,0,.856.644l1.323-.113a.806.806,0,0,0,.737-.776l.029-.888a5.952,5.952,0,0,0,1.361-.689l.731.483a.8.8,0,0,0,1.059-.151l.856-1.014a.8.8,0,0,0-.029-1.068l-.589-.624a5.794,5.794,0,0,0,.463-1.435l.8-.164a.809.809,0,0,0,.644-.856l-.113-1.323a.806.806,0,0,0-.776-.737l-.808-.026a5.844,5.844,0,0,0-.673-1.326l.441-.663A.8.8,0,0,0,490.465,289.963Zm-4.985,7.647a2.6,2.6,0,1,1,2.372-2.81A2.6,2.6,0,0,1,485.48,297.609Z" transform="translate(-462.539 -273.914)"/>
    <path id="Path_35" data-name="Path 35" d="M183.028,563.423a.8.8,0,0,0-.721.792l-.01.814a.8.8,0,0,0,.7.808l.6.077a4.644,4.644,0,0,0,.425,1.04l-.386.476a.8.8,0,0,0,.048,1.068l.57.582a.8.8,0,0,0,1.068.074l.479-.37a4.7,4.7,0,0,0,1.068.467l.064.618a.8.8,0,0,0,.792.721l.814.01a.8.8,0,0,0,.808-.7l.074-.586a4.838,4.838,0,0,0,1.159-.451l.451.364a.8.8,0,0,0,1.068-.048l.583-.57a.8.8,0,0,0,.074-1.068l-.344-.447a4.667,4.667,0,0,0,.489-1.126l.534-.055a.8.8,0,0,0,.721-.792l.01-.814a.8.8,0,0,0-.7-.808l-.521-.068a4.849,4.849,0,0,0-.441-1.126l.325-.4a.8.8,0,0,0-.048-1.068l-.57-.583a.8.8,0,0,0-1.068-.074l-.389.3a4.733,4.733,0,0,0-1.171-.508l-.052-.505a.8.8,0,0,0-.792-.721l-.814-.01a.8.8,0,0,0-.808.7l-.064.5a4.861,4.861,0,0,0-1.213.5l-.4-.328a.8.8,0,0,0-1.068.048l-.586.573a.8.8,0,0,0-.074,1.068l.344.444a4.708,4.708,0,0,0-.46,1.126Zm5.255-.92a2.118,2.118,0,1,1-2.143,2.092A2.119,2.119,0,0,1,188.283,562.5Z" transform="translate(-176.429 -536.168)"/>
  </g>
</svg>
