<!DOCTYPE svg PUBLIC "-//W3C//DTD SVG 20000303 Stylable//EN" "http://www.w3.org/TR/2000/03/WD-SVG-20000303/DTD/svg-20000303-stylable.dtd"[]><svg xmlns="http://www.w3.org/2000/svg" width="64px" height="64px" viewBox="0 0 999 999"><path style="fill:#929292" d="M994,697 l0,297 -594,0 0,-297 -1,-10 -1,-10 -2,-10 -4,-9 -4,-8 -5,-9 -5,-7 -7,-7 -7,-7 -7,-5 -9,-5 -8,-4 -9,-4 -10,-2 -10,-1 -10,-1 -297,0 0,-594 297,0 36,1 35,3 35,4 34,7 33,7 33,9 32,12 32,12 30,14 30,15 29,17 28,18 27,19 26,21 26,21 24,23 23,24 21,26 21,26 19,27 18,28 17,29 15,30 14,30 12,32 12,32 9,33 7,33 7,34 4,35 3,35 1,36z" /><path style="fill:#b9b9b9" d="M301,42 l34,1 33,2 33,4 32,6 32,7 31,9 30,11 30,11 29,13 28,15 28,16 26,16 26,19 25,19 24,21 22,22 22,22 21,24 19,25 19,26 16,26 16,28 15,28 13,29 11,30 11,30 9,31 7,32 6,32 4,33 2,33 1,34 0,297 -519,0 0,-297 0,-14 -2,-14 -4,-13 -4,-12 -6,-12 -7,-11 -8,-11 -9,-9 -9,-9 -11,-8 -11,-7 -12,-6 -12,-4 -13,-4 -14,-2 -14,0 -297,0 0,-519 297,0z" /><path style="fill:#cacaca" d="M301,91 l31,1 31,2 30,4 30,5 30,7 28,9 28,9 28,11 27,12 26,13 25,15 25,16 24,16 22,18 22,19 21,21 21,21 18,21 19,23 16,24 16,25 15,25 13,26 12,27 11,27 9,28 9,29 7,30 5,29 4,31 2,30 1,31 0,298 -420,0 0,-298 -1,-18 -3,-19 -4,-18 -7,-17 -8,-16 -9,-15 -11,-14 -12,-13 -13,-13 -14,-10 -15,-9 -17,-8 -17,-7 -18,-4 -18,-3 -19,-1 -297,0 0,-420 297,0z" /><path style="fill:#d7d7d7" d="M870,697 l0,297 -347,0 0,-297 0,-12 -1,-11 -1,-11 -2,-11 -3,-11 -2,-10 -4,-11 -4,-10 -4,-10 -5,-9 -5,-10 -6,-9 -6,-8 -7,-9 -7,-8 -7,-8 -8,-7 -8,-7 -9,-7 -8,-6 -9,-6 -10,-5 -9,-5 -10,-5 -10,-4 -11,-3 -10,-3 -11,-2 -11,-2 -11,-2 -11,-1 -11,0 -298,0 0,-346 298,0 29,1 29,2 28,4 28,5 28,6 27,8 26,9 26,10 25,11 25,13 23,14 23,14 22,16 22,17 21,18 19,19 19,19 18,21 17,22 16,22 14,23 14,24 13,24 11,26 10,25 9,27 8,27 6,27 5,28 4,29 2,28 1,30z" /><path style="fill:#e4e4e4" d="M845,697 l0,-28 -3,-28 -3,-27 -5,-27 -6,-26 -7,-26 -9,-25 -10,-25 -11,-24 -11,-23 -14,-23 -14,-22 -15,-22 -16,-20 -17,-20 -18,-19 -19,-18 -20,-17 -20,-16 -22,-15 -22,-14 -23,-14 -23,-11 -24,-11 -25,-10 -25,-9 -26,-7 -26,-6 -27,-5 -27,-3 -28,-3 -28,0 -297,0 0,297 297,0 13,0 13,1 12,2 12,1 12,3 12,4 11,4 11,4 11,5 11,6 10,5 10,7 10,7 9,7 9,8 9,8 8,9 8,9 7,9 7,10 7,10 5,10 6,11 5,11 4,11 4,11 4,12 3,12 1,12 2,12 1,13 0,13 0,297 297,0 0,-297z" /><path style="fill:#f0f0f0" d="M820,697 l-1,-27 -2,-26 -3,-26 -4,-26 -6,-25 -7,-24 -9,-25 -9,-23 -10,-23 -12,-22 -12,-22 -14,-21 -14,-21 -16,-19 -16,-19 -17,-18 -18,-17 -19,-16 -19,-16 -21,-14 -21,-14 -22,-12 -22,-12 -23,-10 -23,-9 -25,-9 -24,-7 -25,-6 -26,-4 -26,-3 -26,-2 -27,-1 -297,-1 0,247 297,1 14,0 14,1 13,2 14,3 13,3 13,3 12,5 13,5 12,5 12,6 11,6 11,8 11,7 10,8 10,9 9,9 9,9 9,10 8,10 7,11 8,11 6,11 6,12 5,12 5,13 5,12 3,13 3,13 3,14 2,13 1,14 0,14 0,297 247,0 0,-297z" /><path style="fill:#fdfdfd" d="M784,697 l-1,-25 -2,-25 -3,-24 -4,-23 -6,-24 -6,-23 -8,-22 -8,-22 -10,-21 -11,-21 -11,-20 -13,-20 -13,-19 -15,-18 -15,-18 -16,-16 -16,-16 -18,-15 -18,-15 -19,-13 -20,-13 -20,-11 -21,-11 -21,-10 -22,-8 -22,-8 -23,-6 -24,-6 -23,-4 -24,-3 -25,-2 -25,-1 -297,0 0,174 297,0 16,0 16,2 15,2 15,2 15,4 15,4 14,5 15,5 13,6 13,7 13,8 13,8 12,8 12,9 11,10 10,11 11,10 10,11 9,12 8,12 8,13 8,13 7,13 6,13 5,15 5,14 4,15 4,15 2,15 2,15 2,16 0,16 0,297 174,0 0,-297z" /><path style="fill:none;stroke:#4c4c4c;stroke-width:2" d="M994,994 l0,-297 -1,-36 -3,-35 -4,-35 -7,-34 -7,-33 -9,-33 -12,-32 -12,-32 -14,-30 -15,-30 -17,-29 -18,-28 -19,-27 -21,-26 -21,-26 -23,-24 -24,-23 -26,-21 -26,-21 -27,-19 -28,-18 -29,-17 -30,-15 -30,-14 -32,-12 -32,-12 -33,-9 -33,-7 -34,-7 -35,-4 -35,-3 -36,-1 -297,0" /><path style="fill:none;stroke:#4c4c4c;stroke-width:2" d="M400,994 l0,-297 -1,-10 -1,-10 -2,-10 -4,-9 -4,-8 -5,-9 -5,-7 -7,-7 -7,-7 -7,-5 -9,-5 -8,-4 -9,-4 -10,-2 -10,-1 -10,-1 -297,0" /></svg>