<!DOCTYPE svg PUBLIC "-//W3C//DTD SVG 20000303 Stylable//EN" "http://www.w3.org/TR/2000/03/WD-SVG-20000303/DTD/svg-20000303-stylable.dtd"[]><svg xmlns="http://www.w3.org/2000/svg" width="64px" height="64px" viewBox="0 0 999 999"><path style="fill:#5c6666" d="M697,4 l297,0 0,594 -297,0 -10,1 -10,1 -10,2 -9,3 -9,5 -8,5 -7,5 -7,7 -7,7 -5,7 -5,8 -5,9 -3,9 -2,10 -1,10 -1,10 0,297 -594,0 0,-297 1,-36 3,-35 4,-34 7,-35 7,-33 10,-33 11,-32 12,-32 14,-30 15,-30 17,-29 18,-28 19,-27 21,-26 21,-25 24,-24 24,-24 25,-21 26,-21 27,-19 28,-18 29,-17 30,-15 30,-14 32,-12 32,-11 33,-10 33,-7 35,-7 34,-4 35,-3 36,-1z" /><path style="fill:#777f7f" d="M42,697 l1,-34 2,-33 5,-33 5,-32 7,-32 9,-31 11,-30 11,-30 14,-29 14,-28 16,-28 17,-26 18,-26 19,-25 21,-24 22,-22 22,-22 24,-21 25,-19 26,-18 26,-17 28,-16 28,-14 29,-14 30,-11 30,-11 31,-9 32,-7 32,-5 33,-5 33,-2 34,-1 297,0 0,518 -297,0 -14,1 -14,2 -13,4 -12,4 -12,6 -11,7 -11,8 -9,8 -9,10 -8,11 -7,11 -6,12 -4,12 -4,13 -2,14 -1,14 0,297 -518,0 0,-297z" /><path style="fill:#919999" d="M91,697 l1,-31 2,-31 4,-30 6,-30 7,-30 8,-28 9,-28 11,-28 12,-27 14,-26 14,-25 16,-25 17,-24 18,-22 19,-22 20,-21 21,-20 22,-19 22,-18 24,-17 25,-16 25,-14 26,-14 27,-12 28,-11 28,-9 28,-8 30,-7 30,-6 30,-4 31,-2 31,-1 297,0 0,420 -297,0 -19,1 -19,2 -18,5 -17,6 -16,8 -15,10 -15,10 -13,12 -12,13 -10,15 -10,15 -8,16 -6,17 -5,18 -2,19 -1,19 0,297 -420,0 0,-297z" /><path style="fill:#aab2b2" d="M697,129 l297,0 0,346 -297,0 -12,0 -11,1 -11,1 -11,2 -11,3 -10,2 -11,4 -10,4 -10,4 -9,5 -10,5 -9,6 -9,6 -8,7 -8,7 -8,7 -7,8 -7,8 -7,9 -6,8 -6,9 -6,10 -5,9 -4,10 -4,10 -3,11 -4,10 -2,11 -2,11 -1,11 -1,11 -1,12 0,297 -346,0 2,-297 1,-30 2,-29 4,-28 5,-28 6,-27 7,-27 9,-27 11,-26 11,-25 12,-24 14,-24 15,-23 16,-22 16,-22 18,-20 19,-20 20,-19 20,-18 22,-16 22,-16 23,-15 24,-14 24,-12 25,-11 26,-11 27,-9 27,-7 27,-6 28,-5 28,-4 29,-2 30,-1z" /><path style="fill:#c7cccc" d="M697,153 l-28,0 -28,3 -27,3 -27,5 -26,6 -26,7 -25,9 -25,10 -24,11 -24,11 -22,14 -22,14 -22,15 -20,16 -20,17 -19,18 -18,19 -17,20 -16,20 -15,22 -14,22 -14,22 -11,24 -11,24 -10,25 -9,25 -7,26 -6,26 -5,27 -3,27 -3,28 0,28 0,297 297,0 0,-297 0,-13 1,-13 2,-12 1,-12 3,-12 4,-12 4,-11 4,-11 5,-11 6,-11 5,-10 7,-10 7,-10 7,-9 8,-9 8,-9 9,-8 9,-8 9,-7 10,-7 10,-7 10,-5 11,-6 11,-5 11,-4 11,-4 12,-4 12,-3 12,-1 12,-2 13,-1 13,0 297,0 0,-297 -297,0z" /><path style="fill:#e0e5e5" d="M697,179 l-27,0 -26,2 -26,3 -26,5 -25,6 -24,7 -25,8 -23,9 -23,11 -22,11 -22,12 -21,14 -20,14 -20,16 -19,16 -18,17 -17,18 -16,19 -16,20 -14,20 -14,21 -12,22 -11,22 -11,23 -9,23 -8,25 -7,24 -6,25 -5,26 -3,26 -2,26 0,27 -2,297 247,0 2,-297 0,-14 1,-14 2,-14 2,-13 3,-13 4,-13 4,-12 5,-13 6,-12 5,-12 7,-11 7,-11 8,-11 7,-10 9,-10 9,-9 9,-9 10,-9 10,-7 11,-8 11,-7 11,-7 12,-5 12,-6 13,-5 12,-4 13,-4 13,-3 13,-2 14,-2 14,-1 14,0 297,0 0,-247 -297,0z" /><path style="fill:#fcffff" d="M697,214 l-25,1 -25,2 -24,3 -23,4 -24,5 -23,7 -22,7 -22,9 -22,10 -20,10 -21,12 -19,13 -19,13 -18,14 -18,15 -17,16 -16,17 -15,18 -14,18 -13,19 -13,19 -12,21 -10,20 -10,22 -9,22 -7,22 -7,23 -5,24 -4,23 -3,24 -2,25 -1,25 0,297 174,0 0,-297 1,-16 1,-16 2,-15 2,-15 4,-15 4,-15 5,-14 6,-14 6,-14 6,-13 8,-13 8,-13 9,-12 9,-11 9,-12 11,-10 10,-11 12,-9 11,-9 12,-9 13,-8 13,-8 13,-6 14,-6 14,-6 14,-5 15,-4 15,-4 15,-2 15,-2 16,-1 16,-1 297,0 0,-174 -297,0z" /><path style="fill:none;stroke:#4c4c4c;stroke-width:2" d="M994,4 l-297,0 -36,1 -35,3 -34,4 -35,7 -33,7 -33,10 -32,11 -32,12 -30,14 -30,15 -29,17 -28,18 -27,19 -26,21 -25,21 -24,24 -24,24 -21,25 -21,26 -19,27 -18,28 -17,29 -15,30 -14,30 -12,32 -11,32 -10,33 -7,33 -7,35 -4,34 -3,35 -1,36 0,297" /><path style="fill:none;stroke:#4c4c4c;stroke-width:2" d="M994,598 l-297,0 -10,1 -10,1 -10,2 -9,3 -9,5 -8,5 -7,5 -7,7 -7,7 -5,7 -5,8 -5,9 -3,9 -2,10 -1,10 -1,10 0,297" /></svg>