<!DOCTYPE svg PUBLIC "-//W3C//DTD SVG 20000303 Stylable//EN" "http://www.w3.org/TR/2000/03/WD-SVG-20000303/DTD/svg-20000303-stylable.dtd"[]><svg xmlns="http://www.w3.org/2000/svg" width="64px" height="64px" viewBox="0 0 999 257"><path style="fill:#929292" d="M4,5 l990,0 0,247 -990,0 0,-247z" /><path style="fill:#b8b8b8" d="M4,20 l990,0 0,217 -990,0 0,-217z" /><path style="fill:#cacaca" d="M4,41 l990,0 0,175 -990,0 0,-175z" /><path style="fill:#d7d7d7" d="M4,56 l990,0 0,144 -990,0 0,-144z" /><path style="fill:#e4e4e4" d="M4,66 l990,0 0,124 -990,0 0,-124z" /><path style="fill:#f0f0f0" d="M4,77 l990,0 0,103 -990,0 0,-103z" /><path style="fill:#fdfdfd" d="M4,92 l990,0 0,72 -990,0 0,-72z" /><path style="fill:none;stroke:#4c4c4c;stroke-width:2" d="M4,4 l990,0" /><path style="fill:none;stroke:#4c4c4c;stroke-width:2" d="M4,252 l990,0" /></svg>