<!DOCTYPE svg PUBLIC "-//W3C//DTD SVG 20000303 Stylable//EN" "http://www.w3.org/TR/2000/03/WD-SVG-20000303/DTD/svg-20000303-stylable.dtd"[]><svg xmlns="http://www.w3.org/2000/svg" width="64px" height="64px" viewBox="0 0 257 999"><path style="fill:#929292" d="M252,4 l0,990 -248,0 0,-990 248,0z" /><path style="fill:#b8b8b8" d="M236,4 l0,990 -216,0 0,-990 216,0z" /><path style="fill:#cacaca" d="M216,4 l0,990 -176,0 0,-990 176,0z" /><path style="fill:#d7d7d7" d="M200,4 l0,990 -144,0 0,-990 144,0z" /><path style="fill:#e4e4e4" d="M190,4 l0,990 -124,0 0,-990 124,0z" /><path style="fill:#f0f0f0" d="M180,4 l0,990 -104,0 0,-990 104,0z" /><path style="fill:#fdfdfd" d="M164,4 l0,990 -72,0 0,-990 72,0z" /><path style="fill:none;stroke:#4c4c4c;stroke-width:2" d="M252,4 l0,990" /><path style="fill:none;stroke:#4c4c4c;stroke-width:2" d="M4,4 l0,990" /></svg>