<!DOCTYPE svg PUBLIC "-//W3C//DTD SVG 20000303 Stylable//EN" "http://www.w3.org/TR/2000/03/WD-SVG-20000303/DTD/svg-20000303-stylable.dtd"[]><svg xmlns="http://www.w3.org/2000/svg" width="64px" height="64px" viewBox="0 0 504 999"><path style="fill:#929292" d="M499,4 l0,990 -495,0 0,-990 495,0z" /><path style="fill:#b8b8b8" d="M468,4 l0,990 -433,0 0,-990 433,0z" /><path style="fill:#cacaca" d="M427,4 l0,990 -351,0 0,-990 351,0z" /><path style="fill:#d7d7d7" d="M396,4 l0,990 -289,0 0,-990 289,0z" /><path style="fill:#e4e4e4" d="M375,4 l0,990 -247,0 0,-990 247,0z" /><path style="fill:#f0f0f0" d="M355,4 l0,990 -207,0 0,-990 207,0z" /><path style="fill:#fdfdfd" d="M324,4 l0,990 -145,0 0,-990 145,0z" /><path style="fill:none;stroke:#4c4c4c;stroke-width:2" d="M499,4 l0,990" /><path style="fill:none;stroke:#4c4c4c;stroke-width:2" d="M4,4 l0,990" /></svg>