<svg xmlns="http://www.w3.org/2000/svg" width="175" height="100" viewBox="0 0 175 100">
  <g id="Group_39" data-name="Group 39" transform="translate(-867 -312)">
    <path id="Subtraction_7" data-name="Subtraction 7" d="M50,100a50.356,50.356,0,0,1-10.077-1.016,49.727,49.727,0,0,1-17.879-7.523,50.146,50.146,0,0,1-18.115-22,49.746,49.746,0,0,1-2.913-9.385,50.487,50.487,0,0,1,0-20.154A49.727,49.727,0,0,1,8.539,22.045a50.146,50.146,0,0,1,22-18.115,49.752,49.752,0,0,1,9.385-2.913,50.487,50.487,0,0,1,20.154,0A49.727,49.727,0,0,1,77.956,8.539a50.146,50.146,0,0,1,18.115,22,49.756,49.756,0,0,1,2.913,9.385,50.514,50.514,0,0,1,.271,18.722H9.311a41.357,41.357,0,0,0,6.2,14.608,41.709,41.709,0,0,0,18.3,15.068,41.378,41.378,0,0,0,7.807,2.423,42,42,0,0,0,16.763,0,41.367,41.367,0,0,0,14.871-6.258,41.721,41.721,0,0,0,14.583-17.2H96.93c-.269.731-.558,1.462-.859,2.173A49.938,49.938,0,0,1,50,100ZM50,8.411a41.908,41.908,0,0,0-8.382.845,41.362,41.362,0,0,0-14.871,6.258,41.709,41.709,0,0,0-15.068,18.3,41.383,41.383,0,0,0-2.423,7.807A41.9,41.9,0,0,0,8.411,50H91.589a41.889,41.889,0,0,0-.845-8.382,41.361,41.361,0,0,0-6.258-14.871,41.709,41.709,0,0,0-18.3-15.068,41.383,41.383,0,0,0-7.807-2.423A41.907,41.907,0,0,0,50,8.411Z" transform="translate(867 312)" fill="#08954c"/>
    <text id="DASH" transform="translate(888 362)" fill="#08954c" font-size="25" font-family="Calibri-Bold, Calibri" font-weight="700"><tspan x="0" y="0">DASH</tspan></text>
    <text id="BOARD" transform="translate(966 362)" fill="#fff" font-size="25" font-family="Calibri-Bold, Calibri" font-weight="700"><tspan x="0" y="0">BOARD</tspan></text>
  </g>
</svg>
