<svg xmlns="http://www.w3.org/2000/svg" width="22.5" height="30" viewBox="0 0 22.5 30">
  <g id="lock" transform="translate(-64)">
    <g id="Group_6" data-name="Group 6" transform="translate(64)">
      <path id="Path_16" data-name="Path 16" d="M85.875,11.25H84V8.75a8.75,8.75,0,0,0-17.5,0v2.5H64.625a.625.625,0,0,0-.625.625V27.5A2.5,2.5,0,0,0,66.5,30H84a2.5,2.5,0,0,0,2.5-2.5V11.875A.625.625,0,0,0,85.875,11.25ZM77.121,24.306A.625.625,0,0,1,76.5,25H74a.625.625,0,0,1-.621-.694l.394-3.546A2.473,2.473,0,0,1,72.75,18.75a2.5,2.5,0,1,1,5,0,2.473,2.473,0,0,1-1.023,2.011ZM80.25,11.25h-10V8.75a5,5,0,0,1,10,0Z" transform="translate(-64)" opacity="0.45"/>
    </g>
  </g>
</svg>
